<?xml version="1.0" encoding="UTF-8" standalone="no"?>
<!DOCTYPE svg PUBLIC "-//W3C//DTD SVG 1.1//EN" "http://www.w3.org/Graphics/SVG/1.1/DTD/svg11.dtd">
<svg width="100%" height="100%" viewBox="0 0 512 512" version="1.1" xmlns="http://www.w3.org/2000/svg" xmlns:xlink="http://www.w3.org/1999/xlink" xml:space="preserve" xmlns:serif="http://www.serif.com/" style="fill-rule:evenodd;clip-rule:evenodd;stroke-linejoin:round;stroke-miterlimit:2;">
    <g id="icon-solid">
        <path id="outer-shape" d="M256,23.3C194.44,23.3 -3.82,382.73 26.41,443.43C56.64,504.13 455.75,503.43 485.65,443.43C515.55,383.43 317.62,23.3 256,23.3Z" style="fill:url(#_Linear1);fill-rule:nonzero;"/>
        <g transform="matrix(0.76955,0,0,0.778564,50.0818,149.712)">
            <g transform="matrix(508.014,0,0,508.014,11.0353,376.833)">
                <path d="M0.375,-0.582C0.398,-0.613 0.415,-0.648 0.426,-0.688C0.436,-0.728 0.444,-0.778 0.449,-0.839L0.544,-0.839L0.538,-0.782C0.551,-0.71 0.572,-0.651 0.601,-0.606C0.63,-0.56 0.67,-0.524 0.723,-0.499C0.775,-0.473 0.843,-0.456 0.926,-0.449C0.917,-0.439 0.908,-0.426 0.899,-0.409C0.89,-0.392 0.882,-0.377 0.877,-0.364C0.773,-0.379 0.692,-0.406 0.634,-0.446C0.575,-0.486 0.531,-0.544 0.501,-0.619C0.476,-0.554 0.434,-0.501 0.376,-0.46C0.317,-0.418 0.233,-0.386 0.123,-0.364C0.12,-0.375 0.113,-0.389 0.104,-0.404C0.095,-0.419 0.086,-0.432 0.078,-0.441C0.155,-0.455 0.218,-0.474 0.265,-0.497C0.312,-0.52 0.349,-0.548 0.375,-0.582ZM0.778,-0.662C0.756,-0.634 0.735,-0.609 0.716,-0.588L0.643,-0.614C0.662,-0.637 0.683,-0.664 0.704,-0.695C0.724,-0.725 0.742,-0.752 0.755,-0.777C0.776,-0.77 0.797,-0.761 0.817,-0.751C0.836,-0.74 0.845,-0.732 0.842,-0.728C0.84,-0.725 0.836,-0.722 0.829,-0.721C0.822,-0.72 0.816,-0.715 0.81,-0.706L0.778,-0.662ZM0.292,-0.643C0.269,-0.61 0.241,-0.583 0.207,-0.564L0.142,-0.613C0.173,-0.629 0.199,-0.651 0.22,-0.679C0.241,-0.706 0.256,-0.737 0.267,-0.771C0.286,-0.764 0.304,-0.756 0.322,-0.746C0.339,-0.736 0.347,-0.729 0.345,-0.724C0.344,-0.72 0.34,-0.716 0.334,-0.713C0.327,-0.71 0.322,-0.703 0.319,-0.693C0.312,-0.675 0.303,-0.658 0.292,-0.643ZM0.375,-0.162C0.399,-0.196 0.416,-0.235 0.426,-0.278C0.436,-0.321 0.444,-0.376 0.449,-0.442L0.546,-0.442C0.543,-0.411 0.541,-0.389 0.539,-0.374C0.552,-0.295 0.574,-0.231 0.603,-0.182C0.632,-0.132 0.675,-0.093 0.73,-0.065C0.785,-0.037 0.857,-0.019 0.947,-0.01C0.93,0.009 0.912,0.039 0.894,0.08C0.784,0.064 0.698,0.034 0.637,-0.009C0.576,-0.052 0.53,-0.115 0.499,-0.196C0.472,-0.127 0.429,-0.069 0.37,-0.025C0.31,0.021 0.224,0.055 0.112,0.08C0.107,0.067 0.1,0.052 0.091,0.036C0.081,0.02 0.072,0.008 0.063,-0.001C0.145,-0.018 0.211,-0.039 0.261,-0.066C0.31,-0.092 0.348,-0.124 0.375,-0.162ZM0.282,-0.222C0.26,-0.186 0.231,-0.158 0.195,-0.137L0.128,-0.183C0.159,-0.202 0.186,-0.226 0.207,-0.257C0.228,-0.288 0.244,-0.322 0.255,-0.359C0.275,-0.352 0.294,-0.343 0.313,-0.333C0.331,-0.322 0.339,-0.314 0.337,-0.309C0.336,-0.305 0.332,-0.301 0.326,-0.298C0.319,-0.294 0.314,-0.287 0.31,-0.276C0.301,-0.255 0.292,-0.237 0.282,-0.222ZM0.774,-0.24C0.753,-0.211 0.733,-0.186 0.713,-0.164L0.637,-0.192C0.656,-0.215 0.676,-0.242 0.697,-0.274C0.717,-0.305 0.735,-0.334 0.748,-0.359C0.771,-0.351 0.792,-0.341 0.812,-0.329C0.832,-0.316 0.841,-0.308 0.838,-0.304C0.836,-0.301 0.832,-0.299 0.825,-0.298C0.818,-0.297 0.812,-0.293 0.806,-0.284L0.794,-0.267L0.774,-0.24Z" style="fill:white;fill-rule:nonzero;"/>
            </g>
        </g>
    </g>
    <defs>
        <linearGradient id="_Linear1" x1="0" y1="0" x2="1" y2="0" gradientUnits="userSpaceOnUse" gradientTransform="matrix(385.89,222.79,-222.79,385.89,110.25,213.3)"><stop offset="0" style="stop-color:rgb(195,117,92);stop-opacity:1"/><stop offset="1" style="stop-color:rgb(160,0,0);stop-opacity:1"/></linearGradient>
    </defs>
</svg>
