<?xml version="1.0" encoding="UTF-8" standalone="no"?>
<!-- Created with Inkscape (http://www.inkscape.org/) -->

<svg
   version="1.1"
   id="svg2"
   width="136.48"
   height="83.146667"
   viewBox="0 0 136.48 83.146667"
   sodipodi:docname="Rect_20mm_Col_G.eps"
   xmlns:inkscape="http://www.inkscape.org/namespaces/inkscape"
   xmlns:sodipodi="http://sodipodi.sourceforge.net/DTD/sodipodi-0.dtd"
   xmlns="http://www.w3.org/2000/svg"
   xmlns:svg="http://www.w3.org/2000/svg">
  <defs
     id="defs6" />
  <sodipodi:namedview
     id="namedview4"
     pagecolor="#ffffff"
     bordercolor="#000000"
     borderopacity="0.25"
     inkscape:showpageshadow="2"
     inkscape:pageopacity="0.0"
     inkscape:pagecheckerboard="0"
     inkscape:deskcolor="#d1d1d1" />
  <g
     id="g8"
     inkscape:groupmode="layer"
     inkscape:label="ink_ext_XXXXXX"
     transform="matrix(1.3333333,0,0,-1.3333333,0,83.146667)">
    <g
       id="g10"
       transform="scale(0.1)">
      <path
         d="m 907.211,28.3477 c 48.469,0 88.086,39.414 88.086,87.5393 v 391.875 c 0,48.136 -39.617,87.539 -88.086,87.539 H 907.074 116.43 c -48.4456,0 -88.0862,-39.403 -88.0862,-87.539 V 115.887 c 0,-48.1253 39.6406,-87.5393 88.0862,-87.5393 h 790.644 z"
         style="fill:none;stroke:#ffffff;stroke-width:56.692;stroke-linecap:butt;stroke-linejoin:miter;stroke-miterlimit:4;stroke-dasharray:none;stroke-opacity:1"
         id="path12" />
      <path
         d="m 907.211,28.3477 c 48.469,0 88.086,39.414 88.086,87.5393 v 391.875 c 0,48.136 -39.617,87.539 -88.086,87.539 H 907.074 116.43 c -48.4456,0 -88.0862,-39.403 -88.0862,-87.539 V 115.887 c 0,-48.1253 39.6406,-87.5393 88.0862,-87.5393 h 790.644 0.137"
         style="fill:#33b540;fill-opacity:1;fill-rule:nonzero;stroke:none"
         id="path14" />
      <path
         d="m 907.211,28.3477 c 48.469,0 88.086,39.414 88.086,87.5393 v 391.875 c 0,48.136 -39.617,87.539 -88.086,87.539 H 907.074 116.43 c -48.4456,0 -88.0862,-39.403 -88.0862,-87.539 V 115.887 c 0,-48.1253 39.6406,-87.5393 88.0862,-87.5393 h 790.644 z"
         style="fill:none;stroke:#231f20;stroke-width:2.5;stroke-linecap:butt;stroke-linejoin:miter;stroke-miterlimit:4;stroke-dasharray:none;stroke-opacity:1"
         id="path16" />
      <path
         d="m 564.508,192.645 c -15.227,-15.743 -33.352,-21.59 -53.586,-21.59 -20.828,0 -37.902,7.449 -51.25,20.769 -19.219,19.219 -18.676,42.949 -18.676,75.742 0,32.774 -0.543,56.563 18.676,75.739 13.348,13.332 29.84,20.793 51.25,20.793 43.984,0 66.387,-28.789 71.476,-60.789 h -37.343 c -4.289,17.863 -15.227,27.734 -34.133,27.734 -10.16,0 -18.449,-4.008 -23.789,-10.148 -7.156,-7.977 -9.063,-16.805 -9.063,-53.329 0,-36.523 1.907,-45.586 9.063,-53.593 5.34,-6.121 13.629,-9.844 23.789,-9.844 11.211,0 20.234,3.984 26.406,10.637 6.094,6.941 8.516,15.468 8.516,25.339 v 7.188 h -34.922 v 30.937 h 71.719 v -27.734 c 0,-27.461 -4.774,-43.984 -18.133,-57.851"
         style="fill:#ffffff;fill-opacity:1;fill-rule:nonzero;stroke:none"
         id="path18" />
      <path
         d="m 511.82,466.664 c 9.727,-16.469 174.641,-295.465 184.688,-312.496 -19.766,0 -349.582,0 -369.375,0 10.062,17.031 174.918,296.027 184.687,312.496 z M 506.504,481.863 305.57,141.875 h 412.5 l -206.25,348.93 -5.316,-8.942"
         style="fill:#ffffff;fill-opacity:1;fill-rule:nonzero;stroke:none"
         id="path20" />
    </g>
  </g>
</svg>
