<?xml version="1.0" encoding="UTF-8" standalone="no"?>
<!-- Created with Inkscape (http://www.inkscape.org/) -->

<svg
   version="1.1"
   id="svg2"
   width="136.48"
   height="83.146667"
   viewBox="0 0 136.48 83.146667"
   sodipodi:docname="Rect_20mm_Col_M.eps"
   xmlns:inkscape="http://www.inkscape.org/namespaces/inkscape"
   xmlns:sodipodi="http://sodipodi.sourceforge.net/DTD/sodipodi-0.dtd"
   xmlns="http://www.w3.org/2000/svg"
   xmlns:svg="http://www.w3.org/2000/svg">
  <defs
     id="defs6" />
  <sodipodi:namedview
     id="namedview4"
     pagecolor="#ffffff"
     bordercolor="#000000"
     borderopacity="0.25"
     inkscape:showpageshadow="2"
     inkscape:pageopacity="0.0"
     inkscape:pagecheckerboard="0"
     inkscape:deskcolor="#d1d1d1" />
  <g
     id="g8"
     inkscape:groupmode="layer"
     inkscape:label="ink_ext_XXXXXX"
     transform="matrix(1.3333333,0,0,-1.3333333,0,83.146667)">
    <g
       id="g10"
       transform="scale(0.1)">
      <path
         d="m 907.211,28.3516 c 48.469,0 88.086,39.3828 88.086,87.5394 v 391.847 c 0,48.145 -39.617,87.551 -88.086,87.551 H 907.074 116.43 c -48.4456,0 -88.0862,-39.406 -88.0862,-87.551 V 115.891 c 0,-48.1566 39.6406,-87.5394 88.0862,-87.5394 h 790.644 z"
         style="fill:none;stroke:#ffffff;stroke-width:56.692;stroke-linecap:butt;stroke-linejoin:miter;stroke-miterlimit:4;stroke-dasharray:none;stroke-opacity:1"
         id="path12" />
      <path
         d="m 907.211,28.3516 c 48.469,0 88.086,39.3828 88.086,87.5394 v 391.847 c 0,48.145 -39.617,87.551 -88.086,87.551 H 907.074 116.43 c -48.4456,0 -88.0862,-39.406 -88.0862,-87.551 V 115.891 c 0,-48.1566 39.6406,-87.5394 88.0862,-87.5394 h 790.644 0.137"
         style="fill:#00adef;fill-opacity:1;fill-rule:nonzero;stroke:none"
         id="path14" />
      <path
         d="m 907.211,28.3516 c 48.469,0 88.086,39.3828 88.086,87.5394 v 391.847 c 0,48.145 -39.617,87.551 -88.086,87.551 H 907.074 116.43 c -48.4456,0 -88.0862,-39.406 -88.0862,-87.551 V 115.891 c 0,-48.1566 39.6406,-87.5394 88.0862,-87.5394 h 790.644 z"
         style="fill:none;stroke:#231f20;stroke-width:2.5;stroke-linecap:butt;stroke-linejoin:miter;stroke-miterlimit:4;stroke-dasharray:none;stroke-opacity:1"
         id="path16" />
      <path
         d="M 560.785,215.293 V 325.961 L 524.508,253.965 H 499.43 l -36.563,71.996 V 215.293 h -37.062 v 189.871 h 36.543 l 49.629,-102.652 49.328,102.652 h 36.55 V 215.293 h -37.07"
         style="fill:#ffffff;fill-opacity:1;fill-rule:nonzero;stroke:none"
         id="path18" />
      <path
         d="m 367.211,311.797 c 0,79.75 64.844,144.594 144.609,144.594 79.766,0 144.629,-64.844 144.629,-144.594 0,-79.707 -64.863,-144.551 -144.629,-144.551 -79.765,0 -144.609,64.844 -144.609,144.551 z m -12.266,0 c 0,-86.504 70.371,-156.856 156.875,-156.856 86.516,0 156.895,70.352 156.895,156.856 0,86.516 -70.379,156.887 -156.895,156.887 -86.504,0 -156.875,-70.371 -156.875,-156.887"
         style="fill:#ffffff;fill-opacity:1;fill-rule:nonzero;stroke:none"
         id="path20" />
    </g>
  </g>
</svg>
