<?xml version="1.0" encoding="UTF-8" standalone="no"?>
<!-- Created with Inkscape (http://www.inkscape.org/) -->

<svg
   version="1.1"
   id="svg2"
   width="136.48"
   height="83.146667"
   viewBox="0 0 136.48 83.146667"
   sodipodi:docname="Rect_20mm_Col_MA15+_Restrict.eps"
   xmlns:inkscape="http://www.inkscape.org/namespaces/inkscape"
   xmlns:sodipodi="http://sodipodi.sourceforge.net/DTD/sodipodi-0.dtd"
   xmlns="http://www.w3.org/2000/svg"
   xmlns:svg="http://www.w3.org/2000/svg">
  <defs
     id="defs6" />
  <sodipodi:namedview
     id="namedview4"
     pagecolor="#ffffff"
     bordercolor="#000000"
     borderopacity="0.25"
     inkscape:showpageshadow="2"
     inkscape:pageopacity="0.0"
     inkscape:pagecheckerboard="0"
     inkscape:deskcolor="#d1d1d1" />
  <g
     id="g8"
     inkscape:groupmode="layer"
     inkscape:label="ink_ext_XXXXXX"
     transform="matrix(1.3333333,0,0,-1.3333333,0,83.146667)">
    <g
       id="g10"
       transform="scale(0.1)">
      <path
         d="m 907.211,28.3516 c 48.457,0 88.082,39.4023 88.082,87.5394 v 391.867 c 0,48.137 -39.625,87.539 -88.082,87.539 H 907.074 116.43 c -48.4573,0 -88.0862,-39.402 -88.0862,-87.539 V 115.891 c 0,-48.1371 39.6289,-87.5394 88.0862,-87.5394 h 790.644 z"
         style="fill:none;stroke:#ffffff;stroke-width:56.692;stroke-linecap:butt;stroke-linejoin:miter;stroke-miterlimit:4;stroke-dasharray:none;stroke-opacity:1"
         id="path12" />
      <path
         d="m 907.211,28.3516 c 48.457,0 88.082,39.4023 88.082,87.5394 v 391.867 c 0,48.137 -39.625,87.539 -88.082,87.539 H 907.074 116.43 c -48.4573,0 -88.0862,-39.402 -88.0862,-87.539 V 115.891 c 0,-48.1371 39.6289,-87.5394 88.0862,-87.5394 h 790.644 0.137"
         style="fill:#ed1c24;fill-opacity:1;fill-rule:nonzero;stroke:none"
         id="path14" />
      <path
         d="m 907.211,28.3516 c 48.457,0 88.082,39.4023 88.082,87.5394 v 391.867 c 0,48.137 -39.625,87.539 -88.082,87.539 H 907.074 116.43 c -48.4573,0 -88.0862,-39.402 -88.0862,-87.539 V 115.891 c 0,-48.1371 39.6289,-87.5394 88.0862,-87.5394 h 790.644 z"
         style="fill:none;stroke:#231f20;stroke-width:2.5;stroke-linecap:butt;stroke-linejoin:miter;stroke-miterlimit:4;stroke-dasharray:none;stroke-opacity:1"
         id="path16" />
      <path
         d="m 28.3438,141.711 v -25.266 c 0,-48.4762 39.6289,-88.1247 88.0862,-88.1247 h 0.148 790.473 0.16 c 48.457,0 88.082,39.6485 88.082,88.1247 v 25.266 H 28.3438"
         style="fill:#231f20;fill-opacity:1;fill-rule:nonzero;stroke:none"
         id="path18" />
      <path
         d="m 28.3438,141.711 v -25.266 c 0,-48.4762 39.6289,-88.1247 88.0862,-88.1247 h 0.148 790.473 0.16 c 48.457,0 88.082,39.6485 88.082,88.1247 v 25.266 z"
         style="fill:none;stroke:#231f20;stroke-width:2.5;stroke-linecap:butt;stroke-linejoin:miter;stroke-miterlimit:4;stroke-dasharray:none;stroke-opacity:1"
         id="path20" />
      <path
         d="m 688.906,299.746 v 130.91 l -27.566,-24.23 v 16.992 l 27.566,23.812 h 14.926 V 299.746 h -14.926"
         style="fill:#ffffff;fill-opacity:1;fill-rule:nonzero;stroke:none"
         id="path22" />
      <path
         d="m 798.477,309.277 c -6.832,-6.836 -16.364,-10.996 -29.414,-10.996 -12.848,0 -23.204,4.16 -29.606,10.586 -6.445,6.621 -9.535,15.117 -10.387,25.688 h 14.914 c 1.875,-14.731 9.536,-23.012 25.079,-23.012 7.265,0 13.871,2.48 18.218,6.836 7.68,7.668 8.114,19.465 8.114,30.039 0,18.02 -3.555,35.828 -24.883,35.828 -12.852,0 -21.524,-5.789 -24.453,-14.488 H 732.59 v 77.472 h 74.601 v -13.253 h -61.132 v -46.805 c 5.82,6.402 14.918,10.137 26.519,10.137 10.981,0 19.688,-3.528 25.485,-9.317 10.769,-10.773 12.214,-25.691 12.214,-39.574 0,-14.711 -1.211,-28.594 -11.8,-39.141"
         style="fill:#ffffff;fill-opacity:1;fill-rule:nonzero;stroke:none"
         id="path24" />
      <path
         d="m 879.688,348.223 v -36.477 h -13.891 v 36.477 H 829.34 v 13.871 h 36.457 v 36.051 h 13.891 v -36.051 h 36.253 v -13.871 h -36.253"
         style="fill:#ffffff;fill-opacity:1;fill-rule:nonzero;stroke:none"
         id="path26" />
      <path
         d="m 338.031,268.77 v 113.335 l -37.133,-73.726 h -25.64 l -37.422,73.726 V 268.77 h -37.969 v 194.457 h 37.399 l 50.8,-105.145 50.493,105.145 H 375.98 V 268.77 h -37.949"
         style="fill:#ffffff;fill-opacity:1;fill-rule:nonzero;stroke:none"
         id="path28" />
      <path
         d="M 519.309,268.77 507.82,303.195 H 438.754 L 426.992,268.77 h -39.586 l 70.731,194.457 h 29.758 L 558.918,268.77 Z m -45.36,137.109 -24.558,-70.762 h 48.32 l -23.762,70.762"
         style="fill:#ffffff;fill-opacity:1;fill-rule:nonzero;stroke:none"
         id="path30" />
      <path
         d="M 513.383,568.551 H 232.914 L 107.699,367.609 232.914,166.621 H 516.898 L 642.191,367.609 516.898,568.551 Z m -3.457,-12.582 c 3.515,-5.637 113.472,-182.039 117.422,-188.36 -3.95,-6.359 -113.907,-182.746 -117.422,-188.41 -6.719,0 -263.285,0 -270.039,0 -3.5,5.664 -113.399,182.082 -117.383,188.41 3.984,6.321 113.883,182.723 117.383,188.36 6.754,0 263.32,0 270.039,0"
         style="fill:#ffffff;fill-opacity:1;fill-rule:nonzero;stroke:none"
         id="path32" />
      <path
         d="M 284.977,51.3594 270.254,80.8008 H 257.008 V 51.3594 H 246.406 V 121.211 H 273.5 c 13.242,0 21.68,-8.516 21.68,-20.398 0,-10.0122 -6.094,-16.3989 -13.926,-18.5552 L 297.348,51.3594 Z M 272.711,111.699 H 257.008 V 89.8242 h 15.703 c 7.059,0 11.867,4.0235 11.867,10.8788 0,6.875 -4.808,10.996 -11.867,10.996"
         style="fill:#ffffff;fill-opacity:1;fill-rule:nonzero;stroke:none"
         id="path34" />
      <path
         d="m 308.223,51.3594 v 69.8516 h 44.648 v -9.512 H 318.828 V 91.2891 h 29.047 V 81.875 H 318.828 V 60.8789 h 34.043 v -9.5195 h -44.648"
         style="fill:#ffffff;fill-opacity:1;fill-rule:nonzero;stroke:none"
         id="path36" />
      <path
         d="m 383.5,50.7617 c -10.508,0 -18.066,2.461 -24.727,9.2188 l 7.063,6.9726 c 5.105,-5.0976 10.691,-6.6797 17.855,-6.6797 9.125,0 14.438,3.9258 14.438,10.7032 0,3.0468 -0.902,5.5859 -2.754,7.2656 -1.781,1.6601 -3.539,2.3437 -7.656,2.9492 l -8.246,1.1719 c -5.7,0.8008 -10.211,2.7461 -13.246,5.5859 -3.43,3.2539 -5.11,7.6563 -5.11,13.3598 0,12.16 8.828,20.507 23.36,20.507 9.218,0 15.703,-2.363 21.699,-7.949 l -6.781,-6.679 c -4.313,4.121 -9.317,5.39 -15.211,5.39 -8.243,0 -12.754,-4.707 -12.754,-10.879 0,-2.5584 0.777,-4.824 2.648,-6.4842 1.762,-1.5625 4.617,-2.7539 7.852,-3.2304 l 7.937,-1.1836 c 6.481,-0.9766 10.113,-2.5586 13.043,-5.1953 3.832,-3.3477 5.707,-8.3477 5.707,-14.3242 0,-12.8633 -10.488,-20.5196 -25.117,-20.5196"
         style="fill:#ffffff;fill-opacity:1;fill-rule:nonzero;stroke:none"
         id="path38" />
      <path
         d="M 444.066,111.699 V 51.3594 h -10.628 v 60.3396 h -19.219 v 9.512 h 49.066 v -9.512 h -19.219"
         style="fill:#ffffff;fill-opacity:1;fill-rule:nonzero;stroke:none"
         id="path40" />
      <path
         d="M 511.484,51.3594 496.742,80.8008 H 483.477 V 51.3594 H 472.895 V 121.211 H 500 c 13.285,0 21.723,-8.516 21.723,-20.398 0,-10.0122 -6.094,-16.3989 -13.973,-18.5552 L 523.844,51.3594 Z M 499.195,111.699 H 483.477 V 89.8242 h 15.718 c 7.075,0 11.903,4.0235 11.903,10.8788 0,6.875 -4.828,10.996 -11.903,10.996"
         style="fill:#ffffff;fill-opacity:1;fill-rule:nonzero;stroke:none"
         id="path42" />
      <path
         d="m 534.77,51.3594 h 10.582 V 121.211 H 534.77 Z"
         style="fill:#ffffff;fill-opacity:1;fill-rule:nonzero;stroke:none"
         id="path44" />
      <path
         d="m 583.715,50.7617 c -7.266,0 -13.547,2.6563 -18.36,7.461 -6.835,6.875 -6.761,14.6289 -6.761,28.0586 0,13.4453 -0.074,21.1987 6.761,28.0737 4.813,4.805 11.094,7.461 18.36,7.461 12.848,0 22.457,-7.57 24.918,-21.503 H 597.82 c -1.644,7.07 -6.332,11.984 -14.105,11.984 -4.102,0 -7.852,-1.574 -10.313,-4.219 -3.398,-3.742 -4.218,-7.765 -4.218,-21.7967 0,-14.0352 0.82,-18.0469 4.218,-21.7891 2.461,-2.6367 6.211,-4.2188 10.313,-4.2188 7.773,0 12.551,4.9141 14.219,11.9727 h 10.699 C 606.262,58.3203 596.371,50.7617 583.715,50.7617"
         style="fill:#ffffff;fill-opacity:1;fill-rule:nonzero;stroke:none"
         id="path46" />
      <path
         d="M 641.996,111.699 V 51.3594 H 631.41 v 60.3396 h -19.219 v 9.512 h 49.059 v -9.512 h -19.254"
         style="fill:#ffffff;fill-opacity:1;fill-rule:nonzero;stroke:none"
         id="path48" />
      <path
         d="m 670.859,51.3594 v 69.8516 h 44.649 v -9.512 H 681.449 V 91.2891 h 29.035 V 81.875 H 681.449 V 60.8789 h 34.059 v -9.5195 h -44.649"
         style="fill:#ffffff;fill-opacity:1;fill-rule:nonzero;stroke:none"
         id="path50" />
      <path
         d="m 770.16,57.9219 c -4.414,-4.4063 -10.781,-6.5625 -18.047,-6.5625 h -24.535 v 69.8516 h 24.535 c 7.266,0 13.633,-2.156 18.047,-6.57 7.574,-7.551 7.07,-17.766 7.07,-27.8637 0,-10.1054 0.504,-21.289 -7.07,-28.8554 z m -7.265,49.0621 c -2.957,3.25 -6.875,4.715 -11.879,4.715 H 738.168 V 60.8789 h 12.848 c 5.004,0 8.922,1.457 11.879,4.707 3.632,4.0157 3.75,11.5821 3.75,21.1914 0,9.6094 -0.118,16.1917 -3.75,20.2067"
         style="fill:#ffffff;fill-opacity:1;fill-rule:nonzero;stroke:none"
         id="path52" />
    </g>
  </g>
</svg>
