<?xml version="1.0" encoding="UTF-8" standalone="no"?>
<!-- Created with Inkscape (http://www.inkscape.org/) -->

<svg
   version="1.1"
   id="svg2"
   width="136.48"
   height="83.146667"
   viewBox="0 0 136.48 83.146667"
   sodipodi:docname="Rect_20mm_Col_PG.eps"
   xmlns:inkscape="http://www.inkscape.org/namespaces/inkscape"
   xmlns:sodipodi="http://sodipodi.sourceforge.net/DTD/sodipodi-0.dtd"
   xmlns="http://www.w3.org/2000/svg"
   xmlns:svg="http://www.w3.org/2000/svg">
  <defs
     id="defs6" />
  <sodipodi:namedview
     id="namedview4"
     pagecolor="#ffffff"
     bordercolor="#000000"
     borderopacity="0.25"
     inkscape:showpageshadow="2"
     inkscape:pageopacity="0.0"
     inkscape:pagecheckerboard="0"
     inkscape:deskcolor="#d1d1d1" />
  <g
     id="g8"
     inkscape:groupmode="layer"
     inkscape:label="ink_ext_XXXXXX"
     transform="matrix(1.3333333,0,0,-1.3333333,0,83.146667)">
    <g
       id="g10"
       transform="scale(0.1)">
      <path
         d="m 907.211,28.3516 c 48.457,0 88.086,39.4023 88.086,87.5394 v 391.863 c 0,48.137 -39.629,87.535 -88.086,87.535 H 907.074 116.43 c -48.4573,0 -88.0862,-39.398 -88.0862,-87.535 V 115.891 c 0,-48.1371 39.6289,-87.5394 88.0862,-87.5394 h 790.644 z"
         style="fill:none;stroke:#ffffff;stroke-width:56.692;stroke-linecap:butt;stroke-linejoin:miter;stroke-miterlimit:4;stroke-dasharray:none;stroke-opacity:1"
         id="path12" />
      <path
         d="m 907.211,28.3516 c 48.457,0 88.086,39.4023 88.086,87.5394 v 391.863 c 0,48.137 -39.629,87.535 -88.086,87.535 H 907.074 116.43 c -48.4573,0 -88.0862,-39.398 -88.0862,-87.535 V 115.891 c 0,-48.1371 39.6289,-87.5394 88.0862,-87.5394 h 790.644 0.137"
         style="fill:#fff200;fill-opacity:1;fill-rule:nonzero;stroke:none"
         id="path14" />
      <path
         d="m 907.211,28.3516 c 48.457,0 88.086,39.4023 88.086,87.5394 v 391.863 c 0,48.137 -39.629,87.535 -88.086,87.535 H 907.074 116.43 c -48.4573,0 -88.0862,-39.398 -88.0862,-87.535 V 115.891 c 0,-48.1371 39.6289,-87.5394 88.0862,-87.5394 h 790.644 z"
         style="fill:none;stroke:#231f20;stroke-width:2.5;stroke-linecap:butt;stroke-linejoin:miter;stroke-miterlimit:4;stroke-dasharray:none;stroke-opacity:1"
         id="path16" />
      <path
         d="M 433.379,375.48 H 396.84 v -54.878 h 36.539 c 17.738,0 29.004,10.941 29.004,27.304 0,16.293 -11.266,27.574 -29.004,27.574 z m 2.016,-90.058 H 396.84 v -75.449 h -39.164 v 200.394 h 77.719 c 41.343,0 66.128,-28.418 66.128,-62.461 0,-34.086 -24.785,-62.484 -66.128,-62.484"
         style="fill:#231f20;fill-opacity:1;fill-rule:nonzero;stroke:none"
         id="path18" />
      <path
         d="m 646.82,231.066 c -16.074,-16.593 -35.215,-22.793 -56.582,-22.793 -21.992,0 -39.98,7.887 -54.043,21.969 -20.293,20.254 -19.687,45.285 -19.687,79.934 0,34.609 -0.606,59.679 19.687,79.922 14.063,14.093 31.504,21.968 54.043,21.968 46.426,0 70.078,-30.406 75.43,-64.16 h -39.395 c -4.531,18.84 -16.074,29.25 -36.035,29.25 -10.703,0 -19.433,-4.215 -25.058,-10.691 -7.598,-8.445 -9.61,-17.738 -9.61,-56.289 0,-38.563 2.012,-48.125 9.61,-56.563 5.625,-6.484 14.355,-10.429 25.058,-10.429 11.817,0 21.367,4.226 27.891,11.25 6.426,7.312 9.004,16.339 9.004,26.75 v 7.593 h -36.895 v 32.649 h 75.723 v -29.27 c 0,-28.98 -5.078,-46.433 -19.141,-61.09"
         style="fill:#231f20;fill-opacity:1;fill-rule:nonzero;stroke:none"
         id="path20" />
      <path
         d="m 704.848,450.129 c 0,-12.133 0,-264.484 0,-276.621 -12.344,0 -373.66,0 -386.004,0 0,12.137 -0.051,264.488 -0.051,276.621 12.355,0 373.711,0 386.055,0 z m 6.484,12.976 H 305.82 l 0.043,-302.57 h 411.953 v 302.57 h -6.484"
         style="fill:#231f20;fill-opacity:1;fill-rule:nonzero;stroke:none"
         id="path22" />
    </g>
  </g>
</svg>
