<?xml version="1.0" encoding="UTF-8" standalone="no"?>
<!-- Created with Inkscape (http://www.inkscape.org/) -->

<svg
   version="1.1"
   id="svg2"
   width="136.48"
   height="83.146667"
   viewBox="0 0 136.48 83.146667"
   sodipodi:docname="Rect_20mm_Col_R18+_Restrict.eps"
   xmlns:inkscape="http://www.inkscape.org/namespaces/inkscape"
   xmlns:sodipodi="http://sodipodi.sourceforge.net/DTD/sodipodi-0.dtd"
   xmlns="http://www.w3.org/2000/svg"
   xmlns:svg="http://www.w3.org/2000/svg">
  <defs
     id="defs6" />
  <sodipodi:namedview
     id="namedview4"
     pagecolor="#ffffff"
     bordercolor="#000000"
     borderopacity="0.25"
     inkscape:showpageshadow="2"
     inkscape:pageopacity="0.0"
     inkscape:pagecheckerboard="0"
     inkscape:deskcolor="#d1d1d1" />
  <g
     id="g8"
     inkscape:groupmode="layer"
     inkscape:label="ink_ext_XXXXXX"
     transform="matrix(1.3333333,0,0,-1.3333333,0,83.146667)">
    <g
       id="g10"
       transform="scale(0.1)">
      <path
         d="m 907.211,28.3477 c 48.457,0 88.082,39.3945 88.082,87.5393 v 391.855 c 0,48.125 -39.625,87.52 -88.082,87.52 H 907.074 116.43 c -48.4573,0 -88.0862,-39.395 -88.0862,-87.52 V 115.887 c 0,-48.1448 39.6289,-87.5393 88.0862,-87.5393 h 790.644 z"
         style="fill:none;stroke:#ffffff;stroke-width:56.692;stroke-linecap:butt;stroke-linejoin:miter;stroke-miterlimit:4;stroke-dasharray:none;stroke-opacity:1"
         id="path12" />
      <path
         d="m 907.211,28.3477 c 48.457,0 88.082,39.3945 88.082,87.5393 v 391.855 c 0,48.125 -39.625,87.52 -88.082,87.52 H 907.074 116.43 c -48.4573,0 -88.0862,-39.395 -88.0862,-87.52 V 115.887 c 0,-48.1448 39.6289,-87.5393 88.0862,-87.5393 h 790.644 0.137"
         style="fill:#231f20;fill-opacity:1;fill-rule:nonzero;stroke:none"
         id="path14" />
      <path
         d="m 907.211,28.3477 c 48.457,0 88.082,39.3945 88.082,87.5393 v 391.855 c 0,48.125 -39.625,87.52 -88.082,87.52 H 907.074 116.43 c -48.4573,0 -88.0862,-39.395 -88.0862,-87.52 V 115.887 c 0,-48.1448 39.6289,-87.5393 88.0862,-87.5393 h 790.644 z"
         style="fill:none;stroke:#231f20;stroke-width:2.5;stroke-linecap:butt;stroke-linejoin:miter;stroke-miterlimit:4;stroke-dasharray:none;stroke-opacity:1"
         id="path16" />
      <path
         d="m 28.3438,141.688 v -25.27 c 0,-48.4414 39.6289,-88.1094 88.0862,-88.1094 h 0.148 790.496 0.137 c 48.457,0 88.082,39.668 88.082,88.1094 v 25.27 H 28.3438"
         style="fill:#231f20;fill-opacity:1;fill-rule:nonzero;stroke:none"
         id="path18" />
      <path
         d="m 28.3438,141.688 v -25.27 c 0,-48.4414 39.6289,-88.1094 88.0862,-88.1094 h 0.148 790.496 0.137 c 48.457,0 88.082,39.668 88.082,88.1094 v 25.27 z"
         style="fill:none;stroke:#231f20;stroke-width:2.5;stroke-linecap:butt;stroke-linejoin:miter;stroke-miterlimit:4;stroke-dasharray:none;stroke-opacity:1"
         id="path20" />
      <path
         d="M 284.961,51.3359 270.25,80.793 H 256.996 V 51.3359 h -10.605 v 69.8831 h 27.101 c 13.242,0 21.68,-8.551 21.68,-20.426 0,-10 -6.086,-16.3711 -13.938,-18.5391 l 16.09,-30.918 z M 272.699,111.672 H 256.996 V 89.8125 h 15.703 c 7.047,0 11.875,4.0234 11.875,10.8985 0,6.875 -4.828,10.961 -11.875,10.961"
         style="fill:#ffffff;fill-opacity:1;fill-rule:nonzero;stroke:none"
         id="path22" />
      <path
         d="m 308.219,51.3359 v 69.8831 h 44.648 v -9.547 H 318.813 V 91.2773 h 29.046 V 81.8438 H 318.813 V 60.8672 h 34.054 v -9.5313 h -44.648"
         style="fill:#ffffff;fill-opacity:1;fill-rule:nonzero;stroke:none"
         id="path24" />
      <path
         d="m 383.484,50.7305 c -10.5,0 -18.05,2.4804 -24.722,9.2187 l 7.058,7.0117 c 5.098,-5.1367 10.707,-6.6796 17.868,-6.6796 9.109,0 14.417,3.8906 14.417,10.6835 0,3.0274 -0.878,5.6055 -2.738,7.2461 -1.789,1.6641 -3.531,2.3633 -7.664,2.9688 l -8.234,1.1719 c -5.696,0.7812 -10.207,2.7343 -13.254,5.5859 -3.426,3.2422 -5.11,7.6367 -5.11,13.3595 0,12.148 8.84,20.508 23.364,20.508 9.215,0 15.703,-2.344 21.687,-7.969 l -6.765,-6.641 c -4.332,4.082 -9.328,5.391 -15.207,5.391 -8.262,0 -12.766,-4.727 -12.766,-10.914 0,-2.5236 0.785,-4.7892 2.648,-6.4689 1.77,-1.5781 4.618,-2.7539 7.852,-3.2422 l 7.949,-1.1679 c 6.477,-0.9805 10.11,-2.5625 13.043,-5.1992 3.832,-3.3399 5.699,-8.3594 5.699,-14.336 0,-12.8515 -10.504,-20.5273 -25.125,-20.5273"
         style="fill:#ffffff;fill-opacity:1;fill-rule:nonzero;stroke:none"
         id="path26" />
      <path
         d="M 444.043,111.672 V 51.3359 h -10.621 v 60.3361 h -19.219 v 9.547 h 49.059 v -9.547 h -19.219"
         style="fill:#ffffff;fill-opacity:1;fill-rule:nonzero;stroke:none"
         id="path28" />
      <path
         d="M 511.469,51.3359 496.742,80.793 H 483.477 V 51.3359 h -10.606 v 69.8831 h 27.113 c 13.282,0 21.719,-8.551 21.719,-20.426 0,-10 -6.094,-16.3711 -13.969,-18.5391 l 16.098,-30.918 z M 499.18,111.672 H 483.477 V 89.8125 h 15.703 c 7.09,0 11.894,4.0234 11.894,10.8985 0,6.875 -4.804,10.961 -11.894,10.961"
         style="fill:#ffffff;fill-opacity:1;fill-rule:nonzero;stroke:none"
         id="path30" />
      <path
         d="m 534.746,51.3359 h 10.6055 v 69.8828 H 534.746 Z"
         style="fill:#ffffff;fill-opacity:1;fill-rule:nonzero;stroke:none"
         id="path32" />
      <path
         d="m 583.715,50.7305 c -7.266,0 -13.555,2.6562 -18.36,7.4804 -6.855,6.875 -6.777,14.6094 -6.777,28.0469 0,13.457 -0.078,21.1912 6.777,28.0662 4.805,4.824 11.094,7.481 18.36,7.481 12.832,0 22.441,-7.559 24.918,-21.485 h -10.817 c -1.664,7.071 -6.351,11.953 -14.101,11.953 -4.121,0 -7.871,-1.562 -10.313,-4.218 -3.418,-3.711 -4.218,-7.735 -4.218,-21.7972 0,-14.0234 0.8,-18.0469 4.218,-21.7539 2.442,-2.6797 6.192,-4.2226 10.313,-4.2226 7.75,0 12.539,4.8867 14.219,11.9531 h 10.699 C 606.254,58.293 596.371,50.7305 583.715,50.7305"
         style="fill:#ffffff;fill-opacity:1;fill-rule:nonzero;stroke:none"
         id="path34" />
      <path
         d="M 641.996,111.672 V 51.3359 h -10.605 v 60.3361 h -19.219 v 9.547 h 49.062 v -9.547 h -19.238"
         style="fill:#ffffff;fill-opacity:1;fill-rule:nonzero;stroke:none"
         id="path36" />
      <path
         d="m 670.844,51.3359 v 69.8831 h 44.664 v -9.547 H 681.449 V 91.2773 h 29.02 v -9.4335 h -29.02 V 60.8672 h 34.059 v -9.5313 h -44.664"
         style="fill:#ffffff;fill-opacity:1;fill-rule:nonzero;stroke:none"
         id="path38" />
      <path
         d="m 770.141,57.8984 c -4.395,-4.414 -10.782,-6.5625 -18.047,-6.5625 h -24.531 v 69.8831 h 24.531 c 7.265,0 13.652,-2.168 18.047,-6.602 7.578,-7.558 7.089,-17.7342 7.089,-27.8514 0,-10.1172 0.489,-21.289 -7.089,-28.8672 z m -7.266,49.0816 c -2.953,3.223 -6.879,4.692 -11.875,4.692 H 738.168 V 60.8672 H 751 c 4.996,0 8.922,1.4687 11.875,4.6875 3.652,4.043 3.75,11.6016 3.75,21.2109 0,9.6133 -0.098,16.1724 -3.75,20.2144"
         style="fill:#ffffff;fill-opacity:1;fill-rule:nonzero;stroke:none"
         id="path40" />
      <path
         d="m 617.555,304.773 v 124.024 l -26.106,-22.969 v 16.094 l 26.106,22.582 h 14.129 V 304.773 h -14.129"
         style="fill:#ffffff;fill-opacity:1;fill-rule:nonzero;stroke:none"
         id="path42" />
      <path
         d="m 693.098,303.602 c -23.133,0 -41.18,16.093 -41.18,39.628 0,16.313 9.215,27.266 20.977,33.965 -10.977,6.25 -18.243,16.485 -18.243,31.016 0,21.758 16.289,37.461 38.446,37.461 22.191,0 38.507,-15.703 38.507,-37.461 0,-14.531 -7.101,-24.766 -18.089,-31.016 11.773,-6.699 20.824,-17.652 20.824,-33.965 0,-23.535 -18.047,-39.628 -41.242,-39.628 z m 0,67.109 c -15.309,0 -27.043,-11.777 -27.043,-27.266 0,-15.547 11.734,-27.285 27.043,-27.285 15.316,0 27.097,11.738 27.097,27.285 0,15.489 -11.781,27.266 -27.097,27.266 z m 0,62.422 c -14.305,0 -24.305,-10.625 -24.305,-25.156 0,-14.684 10,-24.903 24.305,-24.903 14.367,0 24.367,10.219 24.367,24.903 0,14.531 -10,25.156 -24.367,25.156"
         style="fill:#ffffff;fill-opacity:1;fill-rule:nonzero;stroke:none"
         id="path44" />
      <path
         d="M 802.227,350.711 V 316.16 h -13.125 v 34.551 h -34.571 v 13.125 h 34.571 v 34.141 h 13.125 v -34.141 h 34.378 v -13.125 h -34.378"
         style="fill:#ffffff;fill-opacity:1;fill-rule:nonzero;stroke:none"
         id="path46" />
      <path
         d="m 416.031,270.105 -37.062,75.704 h -26.66 v -75.704 h -37.071 v 189.844 h 74.395 c 38.691,0 61.59,-26.363 61.59,-58.125 0,-26.695 -16.246,-43.183 -34.66,-49.863 l 42.386,-81.856 z m -28.797,156.797 h -34.925 v -50.136 h 34.925 c 16.262,0 26.926,10.371 26.926,25.058 0,14.668 -10.664,25.078 -26.926,25.078"
         style="fill:#ffffff;fill-opacity:1;fill-rule:nonzero;stroke:none"
         id="path48" />
      <path
         d="M 379.262,558.836 187.035,366.609 383.633,170.027 580.273,366.609 383.617,563.152 Z m 4.355,-13.047 C 391.688,537.703 554.77,374.695 562.855,366.609 554.77,358.484 391.734,195.477 383.633,187.43 c -8.102,8.047 -171.129,171.054 -179.242,179.179 8.113,8.086 171.121,171.094 179.226,179.18"
         style="fill:#ffffff;fill-opacity:1;fill-rule:nonzero;stroke:none"
         id="path50" />
      <path
         d="M 22.6641,141.727 H 1000.98"
         style="fill:none;stroke:#ffffff;stroke-width:5.01;stroke-linecap:butt;stroke-linejoin:miter;stroke-miterlimit:4;stroke-dasharray:none;stroke-opacity:1"
         id="path52" />
    </g>
  </g>
</svg>
