<?xml version="1.0" encoding="UTF-8" standalone="no"?>
<!-- Created with Inkscape (http://www.inkscape.org/) -->

<svg
   version="1.1"
   id="svg2"
   width="136.48"
   height="83.146667"
   viewBox="0 0 136.48 83.146667"
   sodipodi:docname="Rect_20mm_Col_X18+_rest.eps"
   xmlns:inkscape="http://www.inkscape.org/namespaces/inkscape"
   xmlns:sodipodi="http://sodipodi.sourceforge.net/DTD/sodipodi-0.dtd"
   xmlns="http://www.w3.org/2000/svg"
   xmlns:svg="http://www.w3.org/2000/svg">
  <defs
     id="defs6" />
  <sodipodi:namedview
     id="namedview4"
     pagecolor="#ffffff"
     bordercolor="#000000"
     borderopacity="0.25"
     inkscape:showpageshadow="2"
     inkscape:pageopacity="0.0"
     inkscape:pagecheckerboard="0"
     inkscape:deskcolor="#d1d1d1" />
  <g
     id="g8"
     inkscape:groupmode="layer"
     inkscape:label="ink_ext_XXXXXX"
     transform="matrix(1.3333333,0,0,-1.3333333,0,83.146667)">
    <g
       id="g10"
       transform="scale(0.1)">
      <path
         d="m 907.211,28.3477 c 48.457,0 88.086,39.3945 88.086,87.5393 v 391.855 c 0,48.145 -39.629,87.559 -88.086,87.559 h -0.137 -790.648 c -48.4572,0 -88.0822,-39.414 -88.0822,-87.559 V 115.887 c 0,-48.1448 39.625,-87.5393 88.0822,-87.5393 h 790.648 z"
         style="fill:none;stroke:#ffffff;stroke-width:56.692;stroke-linecap:butt;stroke-linejoin:miter;stroke-miterlimit:4;stroke-dasharray:none;stroke-opacity:1"
         id="path12" />
      <path
         d="m 907.211,28.3477 c 48.457,0 88.086,39.3945 88.086,87.5393 v 391.855 c 0,48.145 -39.629,87.559 -88.086,87.559 h -0.137 -790.648 c -48.4572,0 -88.0822,-39.414 -88.0822,-87.559 V 115.887 c 0,-48.1448 39.625,-87.5393 88.0822,-87.5393 h 790.648 0.137"
         style="fill:#231f20;fill-opacity:1;fill-rule:nonzero;stroke:none"
         id="path14" />
      <path
         d="m 907.211,28.3477 c 48.457,0 88.086,39.3945 88.086,87.5393 v 391.855 c 0,48.145 -39.629,87.559 -88.086,87.559 h -0.137 -790.648 c -48.4572,0 -88.0822,-39.414 -88.0822,-87.559 V 115.887 c 0,-48.1448 39.625,-87.5393 88.0822,-87.5393 h 790.648 z"
         style="fill:none;stroke:#231f20;stroke-width:2.5;stroke-linecap:butt;stroke-linejoin:miter;stroke-miterlimit:4;stroke-dasharray:none;stroke-opacity:1"
         id="path16" />
      <path
         d="m 28.3438,141.707 v -25.293 c 0,-48.4374 39.625,-88.0663 88.0822,-88.0663 h 0.156 790.473 0.156 c 48.457,0 88.086,39.6289 88.086,88.0663 v 25.293 H 28.3438"
         style="fill:#231f20;fill-opacity:1;fill-rule:nonzero;stroke:none"
         id="path18" />
      <path
         d="m 28.3438,141.707 v -25.293 c 0,-48.4374 39.625,-88.0663 88.0822,-88.0663 h 0.156 790.473 0.156 c 48.457,0 88.086,39.6289 88.086,88.0663 v 25.293 z"
         style="fill:none;stroke:#231f20;stroke-width:2.5;stroke-linecap:butt;stroke-linejoin:miter;stroke-miterlimit:4;stroke-dasharray:none;stroke-opacity:1"
         id="path20" />
      <path
         d="M 272.695,111.688 H 256.992 V 89.8125 h 15.703 c 7.063,0 11.875,4.0234 11.875,10.8985 0,6.875 -4.812,10.977 -11.875,10.977 z M 284.957,51.3359 270.25,80.793 H 256.992 V 51.3359 h -10.597 v 69.8831 h 27.101 c 13.242,0 21.68,-8.555 21.68,-20.426 0,-10 -6.094,-16.3711 -13.942,-18.5391 l 16.102,-30.918 h -12.379"
         style="fill:#ffffff;fill-opacity:1;fill-rule:nonzero;stroke:none"
         id="path22" />
      <path
         d="m 308.219,51.3359 v 69.8831 h 44.648 v -9.531 H 318.816 V 91.2969 h 29.055 V 81.8633 H 318.816 V 60.8672 h 34.051 v -9.5313 h -44.648"
         style="fill:#ffffff;fill-opacity:1;fill-rule:nonzero;stroke:none"
         id="path24" />
      <path
         d="m 383.496,50.75 c -10.508,0 -18.074,2.4609 -24.726,9.2383 l 7.046,6.9726 c 5.114,-5.0976 10.692,-6.6796 17.872,-6.6796 9.109,0 14.425,3.9296 14.425,10.7226 0,3.0078 -0.894,5.5664 -2.742,7.2266 -1.785,1.6797 -3.547,2.3828 -7.656,2.9492 l -8.246,1.1719 c -5.699,0.7812 -10.227,2.7539 -13.258,5.5859 -3.418,3.2422 -5.098,7.6758 -5.098,13.3595 0,12.168 8.828,20.508 23.36,20.508 9.218,0 15.703,-2.344 21.683,-7.95 l -6.765,-6.66 c -4.325,4.121 -9.325,5.391 -15.219,5.391 -8.25,0 -12.746,-4.727 -12.746,-10.875 0,-2.5626 0.777,-4.8282 2.637,-6.5079 1.773,-1.5625 4.628,-2.7343 7.851,-3.2422 l 7.949,-1.1679 c 6.481,-0.9805 10.114,-2.543 13.043,-5.1992 3.832,-3.3399 5.707,-8.3399 5.707,-14.336 0,-12.8515 -10.5,-20.5078 -25.117,-20.5078"
         style="fill:#ffffff;fill-opacity:1;fill-rule:nonzero;stroke:none"
         id="path26" />
      <path
         d="M 444.055,111.688 V 51.3359 H 433.43 v 60.3521 h -19.219 v 9.531 h 49.059 v -9.531 h -19.215"
         style="fill:#ffffff;fill-opacity:1;fill-rule:nonzero;stroke:none"
         id="path28" />
      <path
         d="M 499.176,111.688 H 483.469 V 89.8125 h 15.707 c 7.09,0 11.91,4.0234 11.91,10.8985 0,6.875 -4.82,10.977 -11.91,10.977 z M 511.477,51.3359 496.738,80.793 H 483.469 V 51.3359 h -10.586 v 69.8831 h 27.105 c 13.278,0 21.715,-8.555 21.715,-20.426 0,-10 -6.094,-16.3711 -13.973,-18.5391 l 16.102,-30.918 h -12.355"
         style="fill:#ffffff;fill-opacity:1;fill-rule:nonzero;stroke:none"
         id="path30" />
      <path
         d="m 534.75,51.3359 h 10.5859 v 69.8828 H 534.75 Z"
         style="fill:#ffffff;fill-opacity:1;fill-rule:nonzero;stroke:none"
         id="path32" />
      <path
         d="m 583.695,50.75 c -7.265,0 -13.535,2.6758 -18.359,7.4609 -6.836,6.875 -6.758,14.6289 -6.758,28.0664 0,13.4571 -0.078,21.1917 6.758,28.0857 4.824,4.785 11.094,7.442 18.359,7.442 12.852,0 22.461,-7.559 24.922,-21.485 h -10.801 c -1.66,7.071 -6.347,11.953 -14.121,11.953 -4.101,0 -7.851,-1.562 -10.312,-4.218 -3.399,-3.711 -4.219,-7.735 -4.219,-21.7777 0,-14.0429 0.82,-18.0664 4.219,-21.7773 2.461,-2.6367 6.211,-4.2187 10.312,-4.2187 7.774,0 12.559,4.9023 14.219,11.9531 h 10.703 C 606.254,58.3086 596.352,50.75 583.695,50.75"
         style="fill:#ffffff;fill-opacity:1;fill-rule:nonzero;stroke:none"
         id="path34" />
      <path
         d="M 641.977,111.688 V 51.3359 h -10.586 v 60.3521 h -19.219 v 9.531 h 49.062 v -9.531 h -19.257"
         style="fill:#ffffff;fill-opacity:1;fill-rule:nonzero;stroke:none"
         id="path36" />
      <path
         d="m 670.844,51.3359 v 69.8831 h 44.648 v -9.531 H 681.43 V 91.2969 h 29.035 V 81.8633 H 681.43 V 60.8672 h 34.062 v -9.5313 h -44.648"
         style="fill:#ffffff;fill-opacity:1;fill-rule:nonzero;stroke:none"
         id="path38" />
      <path
         d="M 762.875,106.98 C 759.918,110.223 756,111.688 751,111.688 H 738.148 V 60.8672 H 751 c 5,0 8.918,1.4687 11.875,4.707 3.633,4.0235 3.75,11.5821 3.75,21.1914 0,9.6094 -0.117,16.1954 -3.75,20.2144 z m 7.266,-49.062 c -4.414,-4.4141 -10.782,-6.5821 -18.047,-6.5821 h -24.531 v 69.8831 h 24.531 c 7.265,0 13.633,-2.168 18.047,-6.582 7.578,-7.539 7.07,-17.7542 7.07,-27.8714 0,-10.1172 0.508,-21.289 -7.07,-28.8476"
         style="fill:#ffffff;fill-opacity:1;fill-rule:nonzero;stroke:none"
         id="path40" />
      <path
         d="M 22.6758,141.746 H 1000.96"
         style="fill:none;stroke:#ffffff;stroke-width:5.01;stroke-linecap:butt;stroke-linejoin:miter;stroke-miterlimit:4;stroke-dasharray:none;stroke-opacity:1"
         id="path42" />
      <path
         d="m 574.469,300.691 v 124.004 l -26.125,-22.968 v 16.093 l 26.125,22.578 h 14.109 V 300.691 h -14.109"
         style="fill:#ffffff;fill-opacity:1;fill-rule:nonzero;stroke:none"
         id="path44" />
      <path
         d="m 650.023,429.012 c -14.335,0 -24.355,-10.586 -24.355,-25.117 0,-14.707 10.02,-24.922 24.355,-24.922 14.317,0 24.317,10.215 24.317,24.922 0,14.531 -10,25.117 -24.317,25.117 z m 0,-62.403 c -15.32,0 -27.097,-11.773 -27.097,-27.285 0,-15.508 11.777,-27.285 27.097,-27.285 15.313,0 27.071,11.777 27.071,27.285 0,15.512 -11.758,27.285 -27.071,27.285 z m 0,-67.129 c -23.164,0 -41.23,16.094 -41.23,39.649 0,16.289 9.211,27.266 20.996,33.984 -10.976,6.25 -18.242,16.465 -18.242,30.977 0,21.777 16.289,37.48 38.476,37.48 22.18,0 38.457,-15.703 38.457,-37.48 0,-14.512 -7.05,-24.727 -18.066,-30.977 11.797,-6.718 20.801,-17.695 20.801,-33.984 0,-23.555 -18.047,-39.649 -41.192,-39.649"
         style="fill:#ffffff;fill-opacity:1;fill-rule:nonzero;stroke:none"
         id="path46" />
      <path
         d="M 759.125,346.59 V 312.039 H 745.973 V 346.59 H 711.43 v 13.164 h 34.543 v 34.141 h 13.152 V 359.754 H 793.48 V 346.59 h -34.355"
         style="fill:#ffffff;fill-opacity:1;fill-rule:nonzero;stroke:none"
         id="path48" />
      <path
         d="m 410.172,277.098 -36.828,66.152 -36.52,-66.152 H 294.441 L 353.379,374.461 298.141,467 h 42.152 L 373.344,405.633 406.672,467 h 41.879 l -55.199,-92.539 59.211,-97.363 h -42.391"
         style="fill:#ffffff;fill-opacity:1;fill-rule:nonzero;stroke:none"
         id="path50" />
      <path
         d="m 504.531,504.656 c 0,-11.484 0,-250.605 0,-262.07 -11.496,0 -250.554,0 -262.043,0 0,11.465 -0.011,250.586 -0.011,262.07 11.468,0 250.558,0 262.054,0 z m 6.157,12.285 H 230.172 l 0.023,-286.64 h 286.668 v 286.64 h -6.175"
         style="fill:#ffffff;fill-opacity:1;fill-rule:nonzero;stroke:none"
         id="path52" />
    </g>
  </g>
</svg>
